<svg width="1440" height="1024" viewBox="0 0 1440 1024" fill="none" xmlns="http://www.w3.org/2000/svg">
<path d="M0 0H1440V1024H0V0Z" fill="#FFFFFE"/>
<path d="M151.452 342.261L232.582 342L244.109 348.514L243.001 362.846L233.469 376.917L218.617 380.044H174.949C172.466 380.044 167.116 407.839 164.752 421.737L174.949 438.413L202.657 431.378C212.263 432.768 232.272 436.12 235.464 438.413C238.656 440.707 236.794 455.872 235.464 463.168L210.859 475.937L164.752 470.464L151.452 487.141L146.354 542.644C154.555 548.898 171.757 561.406 174.949 561.406H221.721L245.661 528.834L251.867 552.286L239.676 584.076L221.721 604.662H178.052H156.107L125.96 577.04L110 556.455L117.758 467.338L125.96 414.962L135.048 373.53L143.694 355.289L151.452 342.261Z" fill="#FFD803"/>
<path d="M291.546 525.186C286.56 503.044 285.186 491.245 283.344 470.464V447.013C289.556 440.044 293.087 436.229 304.181 438.413C312.644 447.328 314.646 452.884 316.373 463.168L320.806 504.6C324.179 525.414 327.528 535.347 337.653 548.116C345.723 565.946 348.692 567.172 353.613 570.005C362.593 566.773 360.928 573.132 368.243 556.455C375.558 539.778 380.452 509.2 382.208 504.6C384.416 498.815 387.538 480.419 387.528 472.549L391.74 447.013C395.212 444.555 397.2 443.226 403.267 443.886C410.578 447.359 414.283 449.48 416.123 455.351C419.281 460.965 420.168 462.309 421 463.168C417.64 504.774 412.833 516.536 406.148 544.989C401.544 560.965 397.194 568.303 387.528 579.646C374.881 596.101 366.384 602.997 349.845 613C330.892 598.635 323.597 590.764 316.373 577.04C301.482 554.903 298.027 544.269 291.546 525.186Z" fill="#FFD803"/>
<path d="M505.5 529C497.333 529.833 483.6 534.5 480 532.5L486.5 553L517.5 564L557.5 553L563 520L586.5 524.5L589.5 557L566.5 588.5L523 601.5H470.5L441 557L437 524.5L448 480L464.5 461.5L498.5 445H526.5L542 447.25L557.5 449.5L578 467C578 477.5 566.5 505.5 566.5 505.5L541.5 520L505.5 529Z" fill="#FFD803"/>
<path d="M497 483C500.5 481.5 508.6 478.2 513 477H527C529 477 534.5 479.667 537 481L530.5 495.5L515.5 501C508.667 503.667 494.4 509 492 509C489.6 509 487.667 501.667 487 498L497 483Z" fill="white"/>
<path d="M620 465L605 486V502C605 504.8 617.333 500.833 623.5 498.5C628.833 495.167 635.66 493.12 639.5 492C651.5 488.5 650.065 487.784 654 488.5C659.5 489.5 655.5 489 663 492C669 494.4 675.5 503.5 679 514.5C683.5 520.5 674.5 538 672 551.5C670.452 559.858 667 581 667 586C667 591 675.5 594 679 594H694.5C697.333 588.167 702.394 575.822 703 573.5C706 562 707 553 710 546C713.006 538.985 718.87 528.509 721.5 524C725 518 727 517.5 735 509C740.931 502.699 744.5 502 747.5 502C752.5 502 750.586 502.869 754.5 506C762 512 769 517.833 771.5 518C775.333 516.167 784.3 514.9 787.5 514.5C790.7 514.1 787.667 507.167 787.5 502L784 488.5C780 484.833 771.3 476.3 768.5 471.5C765.7 466.7 760.333 467.167 758 468L729 465L715 471.5L694.5 488.5V486L679 465L667 451H639.5C637.5 451 625.667 460.333 620 465Z" fill="#FFD803"/>
<path d="M817.676 472.745C815.02 473.389 808.998 479.573 803.715 488.963L797.301 506.887L793.528 505.607L798.056 482.561C802.206 475.163 811.941 459.344 817.676 455.247C824.845 450.126 860.313 450.552 864.086 451.833C867.104 452.857 874.148 472.745 877.292 482.561C880.185 495.364 883.108 514.372 885.97 516.276C892.385 520.544 905.285 487.742 908.609 482.561C925.588 456.101 924.784 463.391 933.135 465.49C946.718 468.904 950.491 468.477 956.151 477.44C957.283 483.841 957.283 495.791 956.151 505.607C955.06 515.07 950.491 538.469 946.718 554.26C942.945 570.051 915.778 616.569 908.609 627.239C901.44 637.908 885.97 657.967 870.878 669.917C855.785 681.867 837.296 696.377 830.505 699.791C823.713 703.205 807.111 713.448 803.715 710.461C800.999 708.071 792.773 700.076 789 696.377C793.905 690.971 805.074 680.159 810.507 680.159C817.299 680.159 833.901 660.528 843.334 651.992C852.766 643.456 867.482 628.092 877.292 616.569C887.102 605.046 885.97 599.925 892.385 592.67C898.799 585.415 904.081 563.222 908.609 549.138C912.231 537.871 918.671 522.536 921.438 516.276L912.005 532.921C905.465 542.025 891.102 561.515 885.97 566.636C879.556 573.038 879.933 573.038 870.878 575.172C863.579 576.892 853.521 574.318 848.616 566.636C843.376 552.244 844.448 547.508 848.516 529.524L848.616 529.08C851.396 516.787 854.15 515.85 856.54 511.155C858.049 493.657 847.861 482.219 843.334 477.44C837.674 471.465 822.958 471.465 817.676 472.745Z" fill="#FFD803"/>
<path d="M0 0V-1H-1V0H0ZM1440 0H1441V-1H1440V0ZM1440 1024V1025H1441V1024H1440ZM0 1024H-1V1025H0V1024ZM0 1H1440V-1H0V1ZM1439 0V1024H1441V0H1439ZM1440 1023H0V1025H1440V1023ZM1 1024V0H-1V1024H1Z" fill="#FFD803"/>
</svg>
